<svg width="147" height="32" viewBox="0 0 147 32" fill="none" xmlns="http://www.w3.org/2000/svg">
<path d="M0.526367 9.07324V31.7567H5.06306V9.07324H0.526367Z" fill="#FFF6F2"/>
<path d="M5.54934 2.77467C5.54934 4.33416 4.33416 5.54934 2.77467 5.54934C1.21518 5.54934 0 4.33416 0 2.77467C0 1.21518 1.21518 0 2.77467 0C4.35441 0 5.54934 1.21518 5.54934 2.77467Z" fill="url(#paint0_linear_875_74)"/>
<path d="M13.1241 13.3471H9.09375V9.05348H10.8558C12.6178 9.05348 13.8735 7.79779 13.8735 6.03577V3.01807H17.6608V9.07374H22.7038V13.3674H17.6608V24.2028C17.6608 26.2281 19.1798 27.7268 21.1848 27.7268C21.5291 27.7268 21.8937 27.6863 22.238 27.6255L22.6836 27.4838V31.5141C22.481 31.6154 22.238 31.7167 21.9747 31.7572C21.4684 31.8989 20.8608 32.0002 20.1519 32.0002C16.1216 32.0002 13.1039 28.9825 13.1039 24.1825V13.3471H13.1241Z" fill="#FFF6F2"/>
<path d="M28.2329 0H32.7696V11.3417C33.2152 10.8962 33.7215 10.4303 34.3291 10.086C35.3822 9.47844 36.9012 8.83034 39.0683 8.83034C45.124 8.83034 49.9037 13.6101 49.9037 20.4151C49.9037 27.2201 45.124 31.9999 39.0683 31.9999C36.8 31.9999 35.1392 31.3923 34.086 30.7442C33.4785 30.3999 32.9721 29.934 32.5266 29.4885L31.5139 31.7568H28.2329V0ZM45.367 20.4151C45.367 16.1214 42.2885 13.1037 38.8253 13.1037C35.3417 13.1037 32.2835 16.1214 32.2835 20.4151C32.2835 24.7088 35.362 27.7265 38.8253 27.7265C42.3088 27.7265 45.367 24.6885 45.367 20.4151Z" fill="#FFF6F2"/>
<path d="M105.093 9.0736H108.374L109.387 11.3419C109.792 10.8964 110.298 10.4306 110.845 10.0863C111.797 9.47866 113.154 8.83057 114.936 8.83057C117.103 8.83057 118.622 9.74195 119.675 10.5926C120.283 11.1394 120.789 11.7065 121.235 12.3546C121.68 11.7065 122.288 11.1394 122.956 10.5926C124.111 9.74195 125.771 8.83057 128.04 8.83057C132.273 8.83057 135.857 12.3141 135.857 18.147V31.757H131.321V18.147C131.321 15.1293 129.295 13.104 127.027 13.104C124.759 13.104 122.733 15.1293 122.733 18.147V31.757H118.197V18.147C118.197 15.1293 116.171 13.104 113.903 13.104C111.635 13.104 109.609 15.1293 109.609 18.147V31.757H105.073V9.0736H105.093Z" fill="#FFF6F2"/>
<path d="M141.63 9.07324V31.7567H146.167V9.07324H141.63Z" fill="#FFF6F2"/>
<path d="M146.673 2.77467C146.673 4.33416 145.458 5.54934 143.898 5.54934C142.339 5.54934 141.124 4.33416 141.124 2.77467C141.124 1.21518 142.339 0 143.898 0C145.458 0 146.673 1.21518 146.673 2.77467Z" fill="url(#paint1_linear_875_74)"/>
<path d="M65.1135 27.2402V31.3719H65.0933V27.2402H65.1135Z" fill="#EC1C24"/>
<path d="M89.4176 9.37719C88.9315 9.37719 85.1037 9.43795 82.7543 11.4633C82.0049 11.9898 80.972 13.0227 79.9189 14.1367C78.967 15.1493 77.9948 16.243 77.2657 17.0936C75.605 15.0886 73.4581 12.6582 71.7771 11.4633C69.4278 9.43795 65.6 9.35693 65.1139 9.35693C59.0582 9.37719 54.1367 14.2987 54.1367 20.3544C54.1367 26.4303 59.0785 31.3518 65.1341 31.3518V31.3315C65.681 31.3315 69.448 31.2505 71.7771 29.2252C72.4455 28.7391 73.4176 27.8075 74.3898 26.7948C75.4632 25.6607 76.5569 24.4455 77.286 23.6151C78.9265 25.5999 81.0936 28.0303 82.7543 29.2252C85.0429 31.21 88.7492 31.3113 89.3771 31.3113V31.3315C95.453 31.3315 100.374 26.3898 100.374 20.3341C100.354 14.3189 95.453 9.39744 89.4176 9.37719ZM71.8582 23.5543C70.8252 24.6683 69.9341 25.5189 69.3265 25.9442L69.205 26.0252L69.1037 26.1265C68.2126 26.9366 66.1873 27.2404 65.1139 27.2404V27.2607C61.3468 27.2404 58.2683 24.1822 58.2683 20.3949C58.2683 16.6075 61.3468 13.5291 65.1341 13.5291C66.0455 13.5291 68.1721 13.8126 69.1037 14.643L69.205 14.7443L69.3265 14.8253C70.4404 15.5949 72.405 17.6809 74.6126 20.3949C73.6202 21.5695 72.6885 22.6632 71.8582 23.5543ZM89.3973 27.2404C88.4859 27.2201 86.3391 26.9569 85.4075 26.1062L85.3062 26.005L85.1847 25.9239C84.0708 25.1543 82.086 23.048 79.8986 20.3544C80.972 19.0177 82.0049 17.843 82.8961 16.8911C83.8277 15.9189 84.6176 15.1696 85.1847 14.7848L85.3062 14.7037L85.4075 14.6025C86.2783 13.8126 88.2631 13.4886 89.3568 13.4886C93.1441 13.4886 96.2226 16.567 96.2226 20.3544C96.2226 24.1417 93.1644 27.2201 89.3973 27.2404Z" fill="url(#paint2_linear_875_74)"/>
<path opacity="0.53" d="M82.9162 16.9109C82.0251 17.8628 80.9922 19.0577 79.9188 20.3742L77.2656 17.0932C77.9947 16.2425 78.9466 15.1489 79.9188 14.1362L82.9162 16.9109Z" fill="url(#paint3_linear_875_74)"/>
<path opacity="0.53" d="M77.2657 23.6555C76.5569 24.4859 75.4632 25.7011 74.3695 26.8352L71.8379 23.5542C72.6683 22.6631 73.5999 21.5694 74.5721 20.3745L77.2657 23.6555Z" fill="url(#paint4_linear_875_74)"/>
<defs>
<linearGradient id="paint0_linear_875_74" x1="0.241677" y1="1.27768" x2="5.73121" y2="2.01481" gradientUnits="userSpaceOnUse">
<stop stop-color="#FC4985"/>
</linearGradient>
<linearGradient id="paint1_linear_875_74" x1="141.365" y1="1.27768" x2="146.855" y2="2.01481" gradientUnits="userSpaceOnUse">
<stop stop-color="#FC4985"/>
</linearGradient>
<linearGradient id="paint2_linear_875_74" x1="56.1504" y1="14.421" x2="99.278" y2="26.5952" gradientUnits="userSpaceOnUse">
<stop stop-color="#FC4985"/>
</linearGradient>
<linearGradient id="paint3_linear_875_74" x1="77.8279" y1="19.5003" x2="80.839" y2="16.2463" gradientUnits="userSpaceOnUse">
<stop/>
<stop offset="1" stop-color="#6FC7B4" stop-opacity="0"/>
</linearGradient>
<linearGradient id="paint4_linear_875_74" x1="76.6536" y1="21.1934" x2="73.3996" y2="24.8845" gradientUnits="userSpaceOnUse">
<stop/>
<stop offset="1" stop-color="#6FC7B4" stop-opacity="0"/>
</linearGradient>
</defs>
</svg>
